<svg width="128" height="128" viewBox="0 0 128 128" fill="none" xmlns="http://www.w3.org/2000/svg">
  <defs>
    <linearGradient id="earGlow" x1="20" y1="12" x2="104" y2="116" gradientUnits="userSpaceOnUse">
      <stop stop-color="#FFD38A"/>
      <stop offset="0.52" stop-color="#E79A4E"/>
      <stop offset="1" stop-color="#8B4BFF"/>
    </linearGradient>
    <linearGradient id="earCore" x1="42" y1="26" x2="86" y2="102" gradientUnits="userSpaceOnUse">
      <stop stop-color="#FFF0D4"/>
      <stop offset="1" stop-color="#F7BA72"/>
    </linearGradient>
  </defs>

  <rect x="6" y="6" width="116" height="116" rx="30" fill="#0D1B2A"/>
  <path
    d="M63.5 23C44.4 23 30 38.4 30 58.5c0 10.2 3.8 18.2 10.9 25 5.3 5 8.7 11.1 9.8 17.9l.5 3.4c.6 3.8 3.9 6.7 7.8 6.7h4.5c4.5 0 8.2-3.6 8.2-8.1v-8.4c0-5.2 3.1-9.9 8-12.2 10.8-5 18.3-15.8 18.3-28.4C98 37.8 82.9 23 63.5 23Z"
    fill="url(#earGlow)"
  />
  <path
    d="M65 37.5c-9.7 0-17.4 7.7-17.4 17.1 0 5.4 2.2 9.1 6.9 13.1 3.4 2.9 5.4 6.9 5.4 11.4v6.9"
    stroke="#0F1725"
    stroke-width="9"
    stroke-linecap="round"
    stroke-linejoin="round"
  />
  <path
    d="M65 37.5c-9.7 0-17.4 7.7-17.4 17.1 0 5.4 2.2 9.1 6.9 13.1 3.4 2.9 5.4 6.9 5.4 11.4v6.9"
    stroke="url(#earCore)"
    stroke-width="5"
    stroke-linecap="round"
    stroke-linejoin="round"
  />
  <path
    d="M77.5 45.2c5.2 3.2 8.7 8.9 8.7 15.5 0 5.5-2.4 10.4-6.4 13.8"
    stroke="#FFF2DB"
    stroke-width="5"
    stroke-linecap="round"
  />
  <path
    d="M57.5 105.5h11.9"
    stroke="#FFF0D8"
    stroke-width="5"
    stroke-linecap="round"
  />
</svg>
